<?xml version="1.0" encoding="UTF-8"?>
<svg xmlns="http://www.w3.org/2000/svg" xmlns:svg="http://www.w3.org/2000/svg" version="1.1" width="363.27994" height="81.195259">
  <g id="logo">
    <path d="m 57.187808,9.79088 c 0.0185,0.00737 0.03075,0.026875 0.03075,0.047875 0,0.00737 -0.0015,0.01325 -0.0025,0.017125 -1.31975,3.73875 -3.50825,7.99175 -5.677625,11.21975 -4.568875,6.784125 -11.129,11.064 -14.647,9.555125 -3.517125,-1.50725 -2.670875,-8.232375 1.90275,-15.0205 1.029375,-1.523375 2.15725,-2.919875 3.32675,-4.152875 0.0082,-0.01112 0.01463,-0.02337 0.01463,-0.0365 0,-0.02838 -0.0235,-0.05138 -0.05125,-0.05138 0,0 -0.0064,0 -0.0074,10e-4 -1.437,0.19925 -2.892999,0.4825 -4.36275,0.8545 -0.0097,0.0015 -0.0195,0.0088 -0.02687,0.01713 -15.438499,18.933125 -22.008374,43.522 -21.105,65.459 l 0,0 c 0,0.02925 -0.022,0.05125 -0.05125,0.05125 -0.0059,0 -0.01325,0 -0.0195,-0.0025 C 7.411421,74.08288 0.7610335,65.290505 0.067671,54.15863 L 0.0588835,54.029255 C -1.089554,34.223505 14.699059,13.935505 35.328933,8.713255 43.322058,6.68938 50.874308,7.22263 57.187808,9.79088 z M 39.200933,21.05313 c -1.4795,3.120125 -0.891124,5.681125 1.316,5.72025 2.207,0.039 5.198625,-2.456125 6.67725,-5.57375 1.480375,-3.121125 0.891,-5.682125 -1.316,-5.722625 -2.207,-0.03663 -5.19775,2.4585 -6.67725,5.576125" id="red" style="fill:#e3182c;fill-opacity:1;fill-rule:evenodd;stroke:none" />
    <path d="m 51.351808,63.20888 c -1.498999,1.0415 -3.063875,2.0035 -4.680125,2.871625 -0.0074,0.0019 -0.01613,0.0044 -0.0235,0.0044 -0.02775,0 -0.05125,-0.022 -0.05225,-0.04887 -0.30175,-4.75575 -1.325625,-9.36275 -3.097125,-13.19575 -4.722625,-10.231875 -12.977,-11.02 -18.431125,-1.756375 -3.3365,5.669 -4.856,13.7925 -4.444875,21.590375 0,0.022 0.01463,0.042 0.03425,0.04687 5.786125,1.8125 12.452625,2.01125 19.564375,0.21675 20.599125,-5.249 36.3575,-25.516125 35.211,-45.30125 -1.008375,-17.380375 -14.71775,-28.61225 -32.0005,-27.56975 -0.01225,0 -0.0235,0.004875 -0.03175,0.014625 -1.681125,1.700625 -3.254375,3.417 -4.7305,5.150375 -0.0072,0.00825 -0.01212,0.0205 -0.01212,0.03175 0,0.02925 0.02338,0.05225 0.05125,0.05225 0.0014,0 0.0049,0 0.0072,-0.001 10.127,-1.28175 18.244625,0.776375 23.5415,4.996125 0.01225,0.0098 0.01962,0.02438 0.01962,0.0405 0,0.0098 -0.0025,0.0205 -0.0074,0.02787 -18.251,25.729875 -15.991249,40.388625 -10.899875,52.7675 0.0024,0.0059 0.0039,0.01225 0.0039,0.0195 0,0.01713 -0.0087,0.03275 -0.022,0.0425" id="black" style="fill:#231f20;fill-opacity:1;fill-rule:nonzero;stroke:none" />
  </g>
  <g id="name">
    <path style="fill:#231f20;fill-opacity:1;fill-rule:nonzero;stroke:none" id="r" d="m 107.29031,33.70213 c 0.62012,0 1.38187,0.06588 1.94,0.167375 0.0131,0.0025 0.0244,0.0099 0.0326,0.022 0.007,0.01325 0.0113,0.02537 0.007,0.03912 l -2.01513,10.151375 c -0.002,0.01312 -0.01,0.02537 -0.022,0.03262 -0.0113,0.0089 -0.0259,0.0098 -0.039,0.0089 -0.36625,-0.07725 -0.94875,-0.166125 -1.63237,-0.166125 -7.111876,0 -9.886251,6.95175 -10.964376,12.70025 l -2.525376,13.516625 c -0.0064,0.02437 -0.02587,0.042 -0.05125,0.042 l -10.368624,0 c -0.01613,0 -0.03075,-0.0079 -0.03912,-0.01863 -0.0098,-0.01212 -0.01463,-0.02825 -0.01213,-0.04387 l 6.773375,-35.61525 c 0.0049,-0.02437 0.02688,-0.043 0.05125,-0.043 l 9.118625,-0.001 c 0.01712,0 0.03175,0.0059 0.0415,0.01963 0.0074,0.0082 0.01225,0.0205 0.01225,0.03175 l -1.163124,6.1215 c -0.0088,0.0415 0,0.09575 0.05225,0.122125 0.05375,0.02688 0.111375,0.0098 0.148,-0.04637 2.723125,-4.5215 6.489252,-7.041 10.655252,-7.041" />
    <path style="fill:#231f20;fill-opacity:1;fill-rule:nonzero;stroke:none" id="a1" d="m 124.94118,69.85588 c -0.0113,-0.01363 -0.0138,-0.02837 -0.0113,-0.043 l 0.87125,-4.414 c 0.0125,-0.06938 -0.025,-0.122125 -0.085,-0.13425 -0.0487,-0.0084 -0.0937,0.0185 -0.115,0.0575 -1.92625,3.26425 -5.69712,5.34525 -9.93925,5.34525 -6.9605,0 -10.106,-6.179125 -10.10987,-12.36275 -0.005,-7.025375 2.75537,-13.9825 7.37787,-18.608875 3.87213,-3.8745 8.86963,-5.921375 14.4575,-5.921375 4.25,0.017 7.39375,1.2475 9.36375,3.63525 2.9175,3.533625 2.6775,8.838875 1.95,12.69625 l -3.76875,19.7265 c -0.005,0.0245 -0.025,0.043 -0.0513,0.043 l -9.9,0 c -0.0162,0 -0.0312,-0.0073 -0.04,-0.0195 z m -3.88725,-26.026875 c -2.81387,2.815 -4.92575,8.102125 -4.92325,12.309625 0.002,3.69525 1.37113,5.996 3.75238,5.996 3.81187,0 7.09437,-3.98525 8.22437,-9.82175 0.25375,-1.303625 0.51,-2.630375 0.69375,-3.8095 0.18625,-1.17925 0.30125,-2.21925 0.26625,-2.945875 -0.12,-2.492625 -1.4175,-3.836375 -3.745,-3.836375 -1.4225,0 -2.89875,0.735875 -4.2685,2.107875" />
    <path style="fill:#231f20;fill-opacity:1;fill-rule:nonzero;stroke:none" id="c1" d="m 163.44368,33.84763 c 2.645,0 5.345,0.459875 7.22,1.2265 0.0225,0.0098 0.0362,0.03425 0.0312,0.05863 l -1.60125,8.40325 c -0.004,0.01612 -0.0138,0.03087 -0.03,0.03662 -0.015,0.0064 -0.0325,0.0079 -0.0475,-0.0024 -1.61625,-0.903375 -3.4875,-1.340375 -5.7175,-1.340375 -7.45625,0 -11.89875,6.5005 -11.89875,12.76375 0,5.314875 3.55,7.219125 6.86,7.219125 2.95875,0 5.4725,-0.646875 8.6675,-2.219125 0.0188,-0.0099 0.04,-0.0069 0.055,0.0039 0.0163,0.01213 0.0238,0.03275 0.02,0.05125 l -1.635,8.63275 c -0.004,0.01475 -0.0138,0.02938 -0.0288,0.03663 -2.42375,1.171875 -6.17375,1.876 -10.03125,1.876 -9.05,0 -14.8825,-5.668875 -14.8825,-14.44925 0,-12.711375 9.89125,-22.29725 23.01875,-22.29725" />
    <path style="fill:#231f20;fill-opacity:1;fill-rule:nonzero;stroke:none" id="k" d="m 177.38868,22.10688 10.2975,0 c 0.015,0 0.0288,0.0072 0.0387,0.018 0.0112,0.01475 0.0137,0.02937 0.0112,0.0445 l -5.3725,28.256375 c -0.002,0.0185 0.001,0.03562 0.02,0.04287 0.015,0.0084 0.035,0.0035 0.0463,-0.0097 l 13.825,-15.94475 c 0.01,-0.01225 0.025,-0.01863 0.04,-0.01863 l 11.29375,0 c 0.02,0 0.04,0.01225 0.0487,0.03175 0.002,0.0074 0.005,0.01463 0.005,0.022 0,0.01125 -0.005,0.02437 -0.0137,0.03312 l -14.34625,16.16075 8.75125,18.98925 c 0.004,0.0072 0.004,0.01362 0.004,0.021 0,0.01075 -0.002,0.0205 -0.006,0.02775 -0.01,0.01613 -0.0263,0.0245 -0.0438,0.0245 l -11.15,0 c -0.0188,0 -0.0388,-0.01075 -0.0475,-0.03037 l -8.465,-18.771875 c -0.006,-0.01613 -0.0212,-0.0245 -0.0387,-0.0235 -0.0175,0.0015 -0.0288,0.01375 -0.0337,0.03075 l -3.56375,18.7535 c -0.005,0.02488 -0.0263,0.0415 -0.0513,0.0415 l -10.29875,0 c -0.015,0 -0.03,-0.0074 -0.04,-0.01812 -0.0112,-0.01362 -0.0137,-0.02925 -0.0112,-0.043 l 9.05,-47.595125 c 0.002,-0.02538 0.025,-0.0425 0.0512,-0.0425" />
    <path style="fill:#231f20;fill-opacity:1;fill-rule:nonzero;stroke:none" id="s" d="m 221.59118,33.77438 c 4.3075,0 7.49,0.9375 9.0275,1.805125 0.0175,0.01125 0.0288,0.03325 0.0237,0.05513 l -1.48625,7.801375 c -0.002,0.01612 -0.015,0.02925 -0.03,0.03663 -0.015,0.0072 -0.0312,0.0072 -0.0463,-0.001 -1.7425,-0.94975 -4.75625,-1.962 -7.99125,-1.962 -2.715,0 -4.48375,1.13675 -4.48375,3.042 0,1.36625 1.35375,2.590375 4.21875,3.987375 3.7325,1.86375 7.94875,4.626 7.94875,9.620125 0,3.25925 -1.0875,5.984875 -3.22875,8.108875 -2.8475,2.826125 -7.46875,4.369125 -13.02375,4.326125 -4.27375,-0.07075 -8.595,-1.179125 -10.7575,-2.745125 -0.0175,-0.01125 -0.025,-0.03175 -0.0212,-0.05275 l 1.49,-7.849125 c 0.004,-0.01563 0.015,-0.03025 0.0325,-0.0375 0.015,-0.0059 0.0325,-0.004 0.0475,0.0049 2.31375,1.451125 6.87125,3.016125 10.2175,3.016125 2.5925,0 4.33875,-1.19725 4.33875,-3.11625 0,-1.73825 -1.2275,-2.954125 -4.36375,-4.48875 -4.96125,-2.4805 -7.4425,-5.625 -7.4425,-9.332 0,-7.2915 6.21125,-12.21925 15.53,-12.21925" />
    <path style="fill:#231f20;fill-opacity:1;fill-rule:nonzero;stroke:none" id="p" d="m 255.09868,33.77438 c 6.93125,0 11.42625,5.253875 11.42625,13.443375 0,8.58875 -4.12375,17.395 -11.55625,21.357875 -6.77125,3.609375 -12.82125,2.025875 -14.72125,-0.80125 -0.002,-0.0059 -0.0113,-0.0059 -0.0113,0.0014 l -2.53125,13.375 c -0.002,0.0245 -0.025,0.0445 -0.0512,0.0445 l -10.37,0 c -0.015,0 -0.03,-0.0079 -0.04,-0.02 -0.01,-0.01225 -0.0125,-0.02788 -0.01,-0.0425 l 8.9025,-46.817875 c 0.004,-0.02437 0.0263,-0.0425 0.0513,-0.0425 l 9.11875,0.0064 c 0.015,0 0.03,0.0069 0.0412,0.018 0.01,0.01325 0.0112,0.02938 0.01,0.0425 l -0.90625,4.767125 c -0.01,0.05225 -0.005,0.11575 0.0475,0.137625 0.05,0.01962 0.105,0.0025 0.145,-0.04975 l 0.0438,-0.05763 c 2.67,-3.42775 6.44375,-5.36225 10.41125,-5.36225 z m -9.01,28.941875 c 5.5025,0 9.5425,-7.810625 9.5425,-14.705125 0,-1.665 -0.3925,-5.709 -4.23,-5.709 -3.90125,0 -7.19375,4.445875 -8.47125,11.1875 -0.43625,2.30475 -1.66,9.226625 3.15875,9.226625" />
    <path style="fill:#231f20;fill-opacity:1;fill-rule:nonzero;stroke:none" id="a2" d="m 286.61243,69.85588 c -0.009,-0.01363 -0.0125,-0.02837 -0.009,-0.043 l 0.87125,-4.414 c 0.0113,-0.06938 -0.0262,-0.122125 -0.0862,-0.13425 -0.05,-0.0084 -0.0937,0.0185 -0.115,0.0575 -1.92625,3.26425 -5.6975,5.34525 -9.93875,5.34525 -6.96125,0 -10.10625,-6.179125 -10.11,-12.36275 -0.005,-7.025375 2.755,-13.9825 7.3775,-18.608875 3.8725,-3.8745 8.87,-5.921375 14.45625,-5.921375 4.25125,0.017 7.395,1.2475 9.36625,3.63525 2.91625,3.533625 2.67625,8.838875 1.94875,12.69625 l -3.76875,19.7265 c -0.004,0.0245 -0.025,0.043 -0.0513,0.043 l -9.89875,0 c -0.0175,0 -0.0325,-0.0073 -0.0425,-0.0195 z m -3.88625,-26.026875 c -2.81375,2.815 -4.925,8.102125 -4.9225,12.309625 0.001,3.69525 1.37,5.996 3.7525,5.996 3.81125,0 7.09375,-3.98525 8.22375,-9.82175 0.25375,-1.303625 0.51,-2.630375 0.69375,-3.8095 0.1875,-1.17925 0.30125,-2.21925 0.2675,-2.945875 -0.1225,-2.492625 -1.42,-3.836375 -3.74625,-3.836375 -1.42375,0 -2.89875,0.735875 -4.26875,2.107875" />
    <path style="fill:#231f20;fill-opacity:1;fill-rule:nonzero;stroke:none" id="c2" d="m 325.11618,33.84763 c 2.645,0 5.345,0.459875 7.22,1.2265 0.0225,0.0098 0.0362,0.03425 0.0312,0.05863 l -1.60125,8.40325 c -0.004,0.01612 -0.0138,0.03087 -0.0288,0.03662 -0.0163,0.0064 -0.0337,0.0079 -0.0488,-0.0024 -1.61625,-0.903375 -3.4875,-1.340375 -5.7175,-1.340375 -7.45625,0 -11.89875,6.5005 -11.89875,12.76375 0,5.314875 3.55,7.219125 6.86,7.219125 2.95875,0 5.47375,-0.646875 8.6675,-2.219125 0.0188,-0.0099 0.04,-0.0069 0.055,0.0039 0.0175,0.01213 0.0238,0.03275 0.02,0.05125 l -1.635,8.63275 c -0.004,0.01475 -0.015,0.02938 -0.0288,0.03663 -2.42375,1.171875 -6.17375,1.876 -10.03125,1.876 -9.04875,0 -14.8825,-5.668875 -14.8825,-14.44925 0,-12.711375 9.89125,-22.29725 23.01875,-22.29725" />
    <path style="fill:#231f20;fill-opacity:1;fill-rule:nonzero;stroke:none" id="e" d="m 350.98868,33.775255 c 7.37375,0 12.29125,4.28375 12.29125,10.634875 0,2.937 -0.955,5.353 -2.8375,7.1875 -3.45375,3.365625 -9.9375,4.90625 -19.86,4.67275 l -0.11125,-8.75e-4 c -0.001,-0.0015 -0.002,0 -0.002,0 -0.001,8.75e-4 -0.001,8.75e-4 -0.001,0.0039 l 0.004,0.110875 c 0.035,1.021375 0.3875,2.463375 1.05375,3.396875 1.35625,1.713875 3.755,2.6465 6.72875,2.6465 4.345,0 8.11125,-1.054625 12.2075,-3.4155 0.0175,-0.01075 0.04,-0.0097 0.055,0.0025 0.0175,0.01213 0.025,0.03163 0.0225,0.05125 l -1.65125,8.679125 c -0.002,0.01612 -0.0125,0.02937 -0.0263,0.03663 -4.9875,2.539125 -10.84,2.814 -13.1275,2.814 -9.74625,0 -15.3175,-5.419 -15.3175,-14.882875 0,-5.455 2.005,-10.92275 5.49625,-15 3.83,-4.475 9.18625,-6.9375 15.07625,-6.9375 z m 2.46875,10.634875 c 0,-1.822375 -1.51,-2.97225 -3.765,-2.97225 -4.4725,0 -7.34125,3.61825 -8.1775,7.03225 l -0.0288,0.1245 c -0.002,0.0025 -0.002,0.0049 0,0.0074 0.002,0.0024 0.004,0.0039 0.007,0.0039 l 0.12625,0 c 6.0625,0.039 9.48,-0.5835 10.97875,-2.066875 0.5775,-0.57475 0.85875,-1.273 0.85875,-2.128875" />
  </g>
</svg>
