<?xml version="1.0" encoding="UTF-8" standalone="no"?>
<!-- Created with Inkscape (http://www.inkscape.org/) -->

<svg
   xmlns:dc="http://purl.org/dc/elements/1.1/"
   xmlns:cc="http://creativecommons.org/ns#"
   xmlns:rdf="http://www.w3.org/1999/02/22-rdf-syntax-ns#"
   xmlns:svg="http://www.w3.org/2000/svg"
   xmlns="http://www.w3.org/2000/svg"
   xmlns:sodipodi="http://sodipodi.sourceforge.net/DTD/sodipodi-0.dtd"
   xmlns:inkscape="http://www.inkscape.org/namespaces/inkscape"
   id="svg3395"
   version="1.1"
   inkscape:version="0.91 r13725"
   xml:space="preserve"
   width="1458.6"
   height="152.5"
   viewBox="0 0 1458.6 152.5"
   sodipodi:docname="ots_logo_long.svg"><metadata
     id="metadata3401"><rdf:RDF><cc:Work
         rdf:about=""><dc:format>image/svg+xml</dc:format><dc:type
           rdf:resource="http://purl.org/dc/dcmitype/StillImage" /><dc:title></dc:title></cc:Work></rdf:RDF></metadata><defs
     id="defs3399" /><sodipodi:namedview
     pagecolor="#ffffff"
     bordercolor="#666666"
     borderopacity="1"
     objecttolerance="10"
     gridtolerance="10"
     guidetolerance="10"
     inkscape:pageopacity="0"
     inkscape:pageshadow="2"
     inkscape:window-width="2078"
     inkscape:window-height="1776"
     id="namedview3397"
     showgrid="false"
     inkscape:zoom="0.30097354"
     inkscape:cx="729.29999"
     inkscape:cy="76.25"
     inkscape:window-x="0"
     inkscape:window-y="22"
     inkscape:window-maximized="0"
     inkscape:current-layer="g3405" /><g
     id="g3403"
     inkscape:groupmode="layer"
     inkscape:label="ink_ext_XXXXXX"
     transform="matrix(1.25,0,0,-1.25,0,152.5)"><g
       id="g3405"
       transform="scale(0.1,0.1)"><path
         d="m 474.98,455.398 c 149.645,0 251.754,112.961 251.754,259.957 0,149.696 -102.109,261.286 -251.754,261.286 -145.656,0 -251.753,-111.59 -251.753,-261.286 0,-146.996 106.097,-259.957 251.753,-259.957 z m 0,737.592 c 273.532,0 477.637,-204.107 477.637,-477.635 C 952.617,444.543 748.512,240.32 474.98,240.32 204.172,240.32 0,444.543 0,715.355 0,988.883 204.172,1192.99 474.98,1192.99"
         style="fill:#26558b;fill-opacity:1;fill-rule:nonzero;stroke:none"
         id="path3407"
         inkscape:connector-curvature="0" /><path
         d="m 1488.58,779.281 c -53.06,0 -114.42,-23.097 -134.42,-51.683 l 0,-238.172 c 40,-29.934 84.06,-50.317 134.42,-50.317 97.96,0 161.95,65.254 161.95,168.7 0,104.824 -62.6,171.472 -161.95,171.472 z m 65.33,-538.961 c -85.77,0 -149.75,32.793 -199.75,78.996 l 0,-319.316 -230,0 0,970 230,0 0,-76.41 c 40,49.031 108.55,84.375 199.75,84.375 194.58,0 327.94,-153.742 327.94,-370.156 0,-213.688 -133.36,-367.489 -327.94,-367.489"
         style="fill:#26558b;fill-opacity:1;fill-rule:nonzero;stroke:none"
         id="path3409"
         inkscape:connector-curvature="0" /><path
         d="m 2502.6,709.48 c 0,57.141 -39.5,96.383 -123.88,96.383 -84.33,0 -134.7,-45.863 -145.6,-115.863 l 268.09,0 c 1.39,10 1.39,15.391 1.39,19.48 z M 2694.47,331.621 C 2621,271.688 2513.45,235 2392.35,235 c -268.1,0 -390.54,161.875 -390.54,372.809 0,213.695 149.64,376.964 378.29,376.964 216.36,0 319.8,-134.351 319.8,-297.687 0,-44.875 -6.83,-107.086 -14.97,-137.086 l -455.86,0 c 13.57,-80 72.09,-135.051 176.91,-135.051 76.17,0 159.23,35.832 204.1,68.528 l 84.39,-151.856"
         style="fill:#26558b;fill-opacity:1;fill-rule:nonzero;stroke:none"
         id="path3411"
         inkscape:connector-curvature="0" /><path
         d="m 3104.16,970 0,-87.273 c 50,59.894 125.91,95.238 221.14,95.238 193.25,0 268.86,-140.172 268.86,-314.356 l 0,-413.609 -230,0 0,375.535 c 0,91.145 -35.41,141.512 -121.13,141.512 -74.85,0 -118.87,-47.649 -138.87,-88.488 l 0,-428.559 -230,0 0,720 230,0"
         style="fill:#26558b;fill-opacity:1;fill-rule:nonzero;stroke:none"
         id="path3413"
         inkscape:connector-curvature="0" /><path
         d="m 4164.16,980 0,-730 -230,0 0,730 -290,0 0,200 800,0 0,-200 -280,0"
         style="fill:#26558b;fill-opacity:1;fill-rule:nonzero;stroke:none"
         id="path3415"
         inkscape:connector-curvature="0" /><path
         d="m 4957.83,709.48 c 0,57.141 -39.51,96.383 -123.89,96.383 -84.33,0 -134.68,-45.863 -145.6,-115.863 l 268.1,0 c 1.39,10 1.39,15.391 1.39,19.48 z M 5149.69,331.621 C 5076.22,271.688 4968.69,235 4847.57,235 c -268.1,0 -390.54,161.875 -390.54,372.809 0,213.695 149.7,376.964 378.3,376.964 216.34,0 319.78,-134.351 319.78,-297.687 0,-44.875 -6.8,-107.086 -14.95,-137.086 l -455.87,0 c 13.57,-80 72.09,-135.051 176.91,-135.051 76.18,0 159.18,35.832 204.11,68.528 l 84.38,-151.856"
         style="fill:#26558b;fill-opacity:1;fill-rule:nonzero;stroke:none"
         id="path3417"
         inkscape:connector-curvature="0" /><path
         d="m 5668.83,984.773 c 111.58,0 209.58,-39.441 277.63,-97.953 L 5843.02,718.063 c -39.45,32.64 -91.2,58.507 -160.56,58.507 -107.55,0 -168.76,-69.422 -168.76,-166.047 0,-96.628 61.21,-168.746 168.76,-168.746 69.36,0 121.11,27.254 160.56,59.832 l 103.44,-168.64 C 5878.41,274.441 5780.41,235 5668.83,235 c -239.52,0 -389.22,161.875 -389.22,375.523 0,213.7 149.7,374.25 389.22,374.25"
         style="fill:#26558b;fill-opacity:1;fill-rule:nonzero;stroke:none"
         id="path3419"
         inkscape:connector-curvature="0" /><path
         d="m 6314.16,1220 0,-334.555 c 60,58.504 130.88,92.52 226.17,92.52 193.26,0 273.83,-140.172 273.83,-314.356 l 0,-413.609 -230,0 0,375.535 c 0,91.145 -40.48,141.512 -126.11,141.512 -76.23,0 -123.89,-47.649 -143.89,-88.488 l 0,-428.559 -220,0 0,970 220,0"
         style="fill:#26558b;fill-opacity:1;fill-rule:nonzero;stroke:none"
         id="path3421"
         inkscape:connector-curvature="0" /><path
         d="m 7028.54,528.918 c 70.72,-46.262 176.83,-92.578 292.53,-92.578 91.19,0 148.38,30.027 148.38,88.473 0,40.832 -30.02,65.324 -104.82,84.39 l -151.05,40.832 c -159.2,42.156 -235.36,126.535 -235.36,257.184 0,157.841 121.04,284.441 370.12,284.441 131.97,0 261.27,-36.78 333.42,-73.52 l -63.95,-197.3 c -72.23,40.84 -183.71,74.851 -279,74.851 -89.76,0 -127.87,-28.586 -127.87,-73.511 0,-40.836 27.14,-57.129 84.31,-73.473 l 164.69,-47.648 c 170.06,-48.981 243.54,-131.973 243.54,-259.887 0,-178.301 -156.47,-300.852 -387.82,-300.852 -136.08,0 -278.9,46.321 -340.2,80.442 l 53.08,208.156"
         style="fill:#26558b;fill-opacity:1;fill-rule:nonzero;stroke:none"
         id="path3423"
         inkscape:connector-curvature="0" /><path
         d="m 8212.42,984.773 c 111.58,0 209.65,-39.441 277.68,-97.953 L 8386.62,718.063 c -39.47,32.64 -91.22,58.507 -160.58,58.507 -107.6,0 -168.75,-69.422 -168.75,-166.047 0,-96.628 61.15,-168.746 168.75,-168.746 69.36,0 121.11,27.254 160.58,59.832 L 8490.1,332.969 C 8422.07,274.441 8324,235 8212.42,235 c -239.57,0 -389.16,161.875 -389.16,375.523 0,213.7 149.59,374.25 389.16,374.25"
         style="fill:#26558b;fill-opacity:1;fill-rule:nonzero;stroke:none"
         id="path3425"
         inkscape:connector-curvature="0" /><path
         d="m 8854.16,1220 0,-334.555 c 60,58.504 135.88,92.52 231.16,92.52 193.27,0 278.84,-140.172 278.84,-314.356 l 0,-413.609 -230,0 0,375.535 c 0,91.145 -45.43,141.512 -131.07,141.512 -76.23,0 -118.93,-47.649 -148.93,-88.488 l 0,-428.559 -220,0 0,970 220,0"
         style="fill:#26558b;fill-opacity:1;fill-rule:nonzero;stroke:none"
         id="path3427"
         inkscape:connector-curvature="0" /><path
         d="m 9886.94,441.777 c 99.29,0 164.66,74.895 164.66,166.032 0,93.914 -65.37,168.761 -164.66,168.761 -96.62,0 -162,-74.847 -162,-168.761 0,-91.137 65.38,-166.032 162,-166.032 z m 0,542.996 c 223.16,0 385.06,-160.55 385.06,-376.964 C 10272,394.121 10110.1,235 9886.94,235 c -220.51,0 -382.41,159.121 -382.41,372.809 0,216.414 161.9,376.964 382.41,376.964"
         style="fill:#26558b;fill-opacity:1;fill-rule:nonzero;stroke:none"
         id="path3429"
         inkscape:connector-curvature="0" /><path
         d="m 10770.7,441.777 c 99.2,0 164.6,74.895 164.6,166.032 0,93.914 -65.4,168.761 -164.6,168.761 -96.7,0 -162.1,-74.847 -162.1,-168.761 0,-91.137 65.4,-166.032 162.1,-166.032 z m 0,542.996 c 223.1,0 385,-160.55 385,-376.964 0,-213.688 -161.9,-372.809 -385,-372.809 -220.6,0 -382.5,159.121 -382.5,372.809 0,216.414 161.9,376.964 382.5,376.964"
         style="fill:#26558b;fill-opacity:1;fill-rule:nonzero;stroke:none"
         id="path3431"
         inkscape:connector-curvature="0" /><path
         d="m 11544.2,1220 0,-718.391 c 0,-42.117 10.8,-69.375 46.3,-69.375 24.5,0 46.2,8.196 69.4,19.043 l 8.9,-180.925 c -34.1,-12.305 -99.1,-30.032 -171.3,-30.032 -112.9,0 -183.3,54.524 -183.3,204.223 l 0,775.457 230,0"
         style="fill:#26558b;fill-opacity:1;fill-rule:nonzero;stroke:none"
         id="path3433"
         inkscape:connector-curvature="0" /></g></g></svg>