<?xml version="1.0" encoding="UTF-8" standalone="no"?>
<!-- Created with Inkscape (http://www.inkscape.org/) -->

<svg
   xmlns:dc="http://purl.org/dc/elements/1.1/"
   xmlns:cc="http://creativecommons.org/ns#"
   xmlns:rdf="http://www.w3.org/1999/02/22-rdf-syntax-ns#"
   xmlns:svg="http://www.w3.org/2000/svg"
   xmlns="http://www.w3.org/2000/svg"
   xmlns:sodipodi="http://sodipodi.sourceforge.net/DTD/sodipodi-0.dtd"
   xmlns:inkscape="http://www.inkscape.org/namespaces/inkscape"
   id="svg3355"
   version="1.1"
   inkscape:version="0.91 r13725"
   xml:space="preserve"
   width="1002.7625"
   height="326.22501"
   viewBox="0 0 1002.7625 326.22501"
   sodipodi:docname="ots_logo.svg"><metadata
     id="metadata3361"><rdf:RDF><cc:Work
         rdf:about=""><dc:format>image/svg+xml</dc:format><dc:type
           rdf:resource="http://purl.org/dc/dcmitype/StillImage" /><dc:title></dc:title></cc:Work></rdf:RDF></metadata><defs
     id="defs3359" /><sodipodi:namedview
     pagecolor="#ffffff"
     bordercolor="#666666"
     borderopacity="1"
     objecttolerance="10"
     gridtolerance="10"
     guidetolerance="10"
     inkscape:pageopacity="0"
     inkscape:pageshadow="2"
     inkscape:window-width="2078"
     inkscape:window-height="1776"
     id="namedview3357"
     showgrid="false"
     inkscape:zoom="1.9057354"
     inkscape:cx="501.38126"
     inkscape:cy="163.1125"
     inkscape:window-x="0"
     inkscape:window-y="22"
     inkscape:window-maximized="0"
     inkscape:current-layer="g3363" /><g
     id="g3363"
     inkscape:groupmode="layer"
     inkscape:label="ink_ext_XXXXXX"
     transform="matrix(1.25,0,0,-1.25,0,326.225)"><g
       id="g3365"
       transform="scale(0.1,0.1)"><path
         d="m 2667.04,1866.85 c 150.74,0 253.52,113.8 253.52,261.81 0,150.79 -102.78,263.2 -253.52,263.2 -146.72,0 -253.68,-112.41 -253.68,-263.2 0,-148.01 106.96,-261.81 253.68,-261.81 z m 0,742.94 c 275.52,0 481.06,-205.61 481.06,-481.13 0,-272.78 -205.54,-478.44 -481.06,-478.44 -272.89,0 -478.45,205.66 -478.45,478.44 0,275.52 205.56,481.13 478.45,481.13"
         style="fill:#26558b;fill-opacity:1;fill-rule:nonzero;stroke:none"
         id="path3367"
         inkscape:connector-curvature="0" /><path
         d="m 3678.74,2193.08 c -53.4,0 -108.74,-23.29 -138.74,-52.12 l 0,-239.84 c 40,-30.13 88.02,-50.75 138.74,-50.75 98.75,0 163.14,65.79 163.14,169.97 0,105.57 -63.08,172.74 -163.14,172.74 z m 65.82,-542.86 c -86.37,0 -154.56,32.91 -204.56,79.54 l 0,-320 -230,0 0,970 230,0 0,-71.53 c 50,49.31 112.71,85.03 204.56,85.03 196.04,0 330.32,-154.96 330.32,-372.92 0,-215.18 -134.28,-370.12 -330.32,-370.12"
         style="fill:#26558b;fill-opacity:1;fill-rule:nonzero;stroke:none"
         id="path3369"
         inkscape:connector-curvature="0" /><path
         d="m 4697.68,2126.07 c 0,57.56 -39.77,98.75 -124.78,98.75 -84.94,0 -135.68,-55.06 -146.6,-115.06 l 270.01,0 c 1.37,0 1.37,12.19 1.37,16.31 z m 193.32,-384 c -74.07,-60.29 -182.32,-97.28 -304.38,-97.28 -270.04,0 -393.4,163.07 -393.4,375.55 0,215.23 150.82,379.68 381.09,379.68 217.97,0 322.15,-136.47 322.15,-300.98 0,-45.2 -6.87,-109.28 -15.13,-139.28 l -459.17,0 c 13.72,-80 72.63,-134.84 178.17,-134.84 76.77,0 160.43,36.7 205.67,69.62 l 85,-152.47"
         style="fill:#26558b;fill-opacity:1;fill-rule:nonzero;stroke:none"
         id="path3371"
         inkscape:connector-curvature="0" /><path
         d="m 5290,2379.76 0,-82.51 c 50,60.29 130.08,96.01 226.07,96.01 194.63,0 273.93,-141.23 273.93,-316.71 l 0,-416.79 -230,0 0,378.44 c 0,91.8 -39.74,142.55 -126.05,142.55 -75.42,0 -123.95,-47.99 -143.95,-89.12 l 0,-431.87 -230,0 0,720 230,0"
         style="fill:#26558b;fill-opacity:1;fill-rule:nonzero;stroke:none"
         id="path3373"
         inkscape:connector-curvature="0" /><path
         d="m 510,749.762 0,-730.0003 -230,0 0,730.0003 -280,0 0,200 790,0 0,-200 -280,0"
         style="fill:#26558b;fill-opacity:1;fill-rule:nonzero;stroke:none"
         id="path3375"
         inkscape:connector-curvature="0" /><path
         d="m 1309.47,478.691 c 0,57.539 -39.76,97.481 -124.75,97.481 -85.01,0 -135.69,-46.41 -146.7,-116.41 l 270.06,0 c 1.39,10 1.39,14.808 1.39,18.929 z M 1502.72,97.3086 C 1428.76,37.0391 1320.46,0 1198.43,0 928.367,0 805.012,163.148 805.012,375.629 c 0,215.152 150.816,379.723 381.088,379.723 217.95,0 322.12,-134.223 322.12,-298.68 0,-45.293 -6.83,-106.91 -15.08,-136.91 l -459.18,0 c 13.67,-80 72.65,-137.262 178.18,-137.262 76.74,0 160.41,35.559 205.57,68.449 l 85.01,-153.6404"
         style="fill:#26558b;fill-opacity:1;fill-rule:nonzero;stroke:none"
         id="path3377"
         inkscape:connector-curvature="0" /><path
         d="m 2019.99,755.352 c 112.38,0 211.1,-39.864 279.65,-98.743 l -104.18,-170 c -39.76,32.911 -91.84,58.961 -161.72,58.961 -108.34,0 -170.01,-69.91 -170.01,-167.25 0,-97.289 61.67,-169.98 170.01,-169.98 69.88,0 121.96,27.43 161.72,60.32 L 2299.64,98.7188 C 2231.09,39.7617 2132.37,0 2019.99,0 c -241.21,0 -392.01,163.148 -392.01,378.32 0,215.2 150.8,377.032 392.01,377.032"
         style="fill:#26558b;fill-opacity:1;fill-rule:nonzero;stroke:none"
         id="path3379"
         inkscape:connector-curvature="0" /><path
         d="m 2670,989.762 0,-334.551 c 50,58.969 130.05,93.187 226.01,93.187 194.68,0 273.99,-141.168 273.99,-316.628 l 0,-412.0083 -230,0 0,373.6363 c 0,91.891 -39.72,142.551 -126.11,142.551 -76.77,0 -123.89,-48 -143.89,-89.039 l 0,-427.1483 -230,0 0,970.0003 230,0"
         style="fill:#26558b;fill-opacity:1;fill-rule:nonzero;stroke:none"
         id="path3381"
         inkscape:connector-curvature="0" /><path
         d="m 3378,296.121 c 71.26,-46.633 178.17,-93.262 294.69,-93.262 91.88,0 149.43,30.18 149.43,89.121 0,41.141 -30.17,65.801 -105.58,84.989 l -152.16,41.09 c -160.36,42.523 -237.15,127.511 -237.15,259.062 0,159.059 122.03,286.578 372.92,286.578 132.93,0 263.16,-37.058 335.81,-74.07 l -64.44,-198.797 c -72.6,41.18 -185.06,75.438 -280.94,75.438 -90.5,0 -128.86,-28.801 -128.86,-74.008 0,-41.141 27.36,-57.633 84.91,-74.024 l 165.89,-47.949 c 171.31,-49.43 245.4,-132.969 245.4,-261.859 0,-179.598 -157.69,-302.98078 -390.69,-302.98078 -137.08,0 -280.98,46.63278 -342.63,80.89058 L 3378,296.121"
         style="fill:#26558b;fill-opacity:1;fill-rule:nonzero;stroke:none"
         id="path3383"
         inkscape:connector-curvature="0" /><path
         d="m 4564.71,755.352 c 112.39,0 211.12,-39.864 279.66,-98.743 l -104.17,-170 c -39.77,32.911 -91.9,58.961 -161.78,58.961 -108.28,0 -169.97,-69.91 -169.97,-167.25 0,-97.289 61.69,-169.98 169.97,-169.98 69.88,0 122.01,27.43 161.78,60.32 L 4844.37,98.7188 C 4775.83,39.7617 4677.1,0 4564.71,0 4323.44,0 4172.7,163.148 4172.7,378.32 c 0,215.2 150.74,377.032 392.01,377.032"
         style="fill:#26558b;fill-opacity:1;fill-rule:nonzero;stroke:none"
         id="path3385"
         inkscape:connector-curvature="0" /><path
         d="m 5210,989.762 0,-334.551 c 60,58.969 130.04,93.187 226.04,93.187 194.66,0 273.96,-141.168 273.96,-316.628 l 0,-412.0083 -230,0 0,373.6363 c 0,91.891 -39.77,142.551 -126.11,142.551 -76.72,0 -123.89,-48 -143.89,-89.039 l 0,-427.1483 -230,0 0,970.0003 230,0"
         style="fill:#26558b;fill-opacity:1;fill-rule:nonzero;stroke:none"
         id="path3387"
         inkscape:connector-curvature="0" /><path
         d="m 6239.61,208.34 c 100.06,0 165.85,75.39 165.85,167.289 0,94.519 -65.79,169.941 -165.85,169.941 -97.34,0 -163.15,-75.422 -163.15,-169.941 0,-91.899 65.81,-167.289 163.15,-167.289 z m 0,547.012 c 224.8,0 387.95,-161.832 387.95,-379.723 C 6627.56,160.398 6464.41,0 6239.61,0 c -222.08,0 -385.18,160.398 -385.18,375.629 0,217.891 163.1,379.723 385.18,379.723"
         style="fill:#26558b;fill-opacity:1;fill-rule:nonzero;stroke:none"
         id="path3389"
         inkscape:connector-curvature="0" /><path
         d="m 7124.09,208.34 c 100.06,0 165.87,75.39 165.87,167.289 0,94.519 -65.81,169.941 -165.87,169.941 -97.3,0 -163.13,-75.422 -163.13,-169.941 0,-91.899 65.83,-167.289 163.13,-167.289 z m 0,547.012 c 224.83,0 387.96,-161.832 387.96,-379.723 C 7512.05,160.398 7348.92,0 7124.09,0 c -222.03,0 -385.14,160.398 -385.14,375.629 0,217.891 163.11,379.723 385.14,379.723"
         style="fill:#26558b;fill-opacity:1;fill-rule:nonzero;stroke:none"
         id="path3391"
         inkscape:connector-curvature="0" /><path
         d="m 7890,989.762 0,-721.102 c 0,-42.519 14.8,-69.879 50.43,-69.879 24.67,0 48.53,8.199 71.84,19.188 l 9.86,-182.3284 C 7987.84,23.3203 7919.86,5.44922 7847.19,5.44922 7733.44,5.44922 7660,60.2813 7660,211.09 l 0,778.672 230,0"
         style="fill:#26558b;fill-opacity:1;fill-rule:nonzero;stroke:none"
         id="path3393"
         inkscape:connector-curvature="0" /></g></g></svg>